<svg width="34" height="49" viewBox="0 0 34 49" fill="none" xmlns="http://www.w3.org/2000/svg">
<path d="M2 17H22C24.6522 17 27.1957 18.5804 29.0711 21.3934C30.9464 24.2064 32 28.0218 32 32C32 35.9782 30.9464 39.7936 29.0711 42.6066C27.1957 45.4196 24.6522 47 22 47H2V17Z" stroke="white" stroke-width="4" stroke-linecap="round" stroke-linejoin="round"/>
<path d="M2 2H22.7692C25.2174 2 27.5653 3.58035 29.2964 6.3934C31.0275 9.20644 32 13.0218 32 17C32 20.9782 31.0275 24.7936 29.2964 27.6066C27.5653 30.4196 25.2174 32 22.7692 32H2V2Z" stroke="white" stroke-width="4" stroke-linecap="round" stroke-linejoin="round"/>
</svg>
